<svg width="540" height="143" viewBox="0 0 540 143" fill="none" xmlns="http://www.w3.org/2000/svg">
<path fill-rule="evenodd" clip-rule="evenodd" d="M428.5 0.912911C385.6 3.51291 343.9 8.0129 295.7 15.3129C260.9 20.5129 244.1 23.7129 209 31.4129C133.9 47.9129 95.9 58.4129 58 73.3129C28.7 84.9129 0 103.113 0 110.113C0 114.613 3.2 115.813 14.5 115.813C20 115.813 25.1 115.413 25.7 115.013C26.4 114.513 22 113.713 15.8 113.013C9.60005 112.313 4.39998 111.513 4.09998 111.313C2.29998 109.413 18.2 99.5129 35.7 91.5129C73.5 74.2129 125.7 57.4129 188 42.6129C244 29.3129 250.2 28.0129 287 21.9129C342 12.6129 375.4 8.4129 425 4.2129C451.5 1.9129 512.7 1.6129 524 3.7129C533.2 5.3129 533.7 5.61292 531 7.51292C522.9 13.2129 492.2 19.1129 403 32.3129C264.8 52.7129 201.2 66.0129 128 89.9129C108 96.4129 105 97.8129 105 100.813C105 103.413 111.1 107.313 117.3 108.913C127 111.313 158.3 109.513 211.5 103.413C261.1 97.8129 318.5 92.7129 314.5 94.4129C314 94.6129 305 96.4129 294.5 98.3129C267.1 103.513 249.8 107.413 239 110.913C226.1 115.213 223.9 117.413 227.6 122.613C230.6 126.913 234.7 128.113 250 128.913C278.4 130.613 284.1 132.113 285.8 138.513L286.8 142.313L286.9 138.313C287 136.113 286.3 133.313 285.5 132.213C283.6 129.313 275.6 126.113 262.7 122.813C256.8 121.313 251.7 119.913 251.5 119.613C251.2 119.313 254.9 118.613 259.7 117.913C303.5 112.013 346.4 103.813 354 100.013C361 96.5129 363.8 92.9129 362.2 89.3129C359.9 84.3129 355.9 83.6129 336.2 84.8129C326.5 85.3129 307.9 86.3129 295 86.8129C267.7 88.1129 234.4 90.6129 190 94.8129C139.3 99.6129 118 100.813 118 98.9129C118 95.8129 157.3 82.9129 193.2 74.4129C244.2 62.2129 298.9 52.9129 400.5 39.3129C501 25.8129 528.1 19.9129 537.9 9.41291C542.6 4.41291 537.8 2.3129 517.5 0.812905C501.6 -0.287095 447.9 -0.287089 428.5 0.912911Z" fill="#080405"/>
</svg>
